<?xml version="1.0" encoding="UTF-8" standalone="no"?>
<!DOCTYPE svg PUBLIC "-//W3C//DTD SVG 1.1//EN" "http://www.w3.org/Graphics/SVG/1.1/DTD/svg11.dtd">
<svg xmlns="http://www.w3.org/2000/svg" version="1.1" viewBox="0.00 0.00 500.00 500.00">
<path fill="#002f9f" d="
  M 286.90 179.79
  C 286.58 181.03 285.18 181.65 284.05 181.05
  C 279.07 178.41 273.65 176.70 267.80 175.93
  C 263.61 175.37 255.98 176.25 254.17 180.59
  C 252.06 185.64 257.05 188.85 261.73 190.54
  C 265.73 191.99 271.26 194.22 278.32 197.23
  C 280.31 198.08 282.54 199.54 285.00 201.62
  C 288.90 204.91 291.09 209.20 291.57 214.50
  C 292.43 224.02 289.03 233.05 280.97 238.35
  C 266.51 247.83 247.34 244.86 232.38 238.12
  C 231.49 237.72 231.03 236.73 231.28 235.79
  C 233.33 228.19 234.40 224.26 234.49 224.01
  C 235.45 221.28 236.98 221.68 239.23 222.73
  C 246.73 226.23 260.94 231.72 268.20 225.58
  C 271.38 222.89 272.13 218.20 268.96 215.30
  C 267.36 213.84 265.38 212.74 263.02 211.99
  C 262.79 211.92 258.65 210.30 250.59 207.15
  C 236.78 201.76 228.65 190.59 235.17 175.42
  C 239.73 164.79 251.86 159.91 262.78 159.34
  C 272.05 158.85 280.81 160.74 289.05 164.99
  C 289.89 165.42 290.31 166.38 290.08 167.29
  L 286.90 179.79
  Z"
/>
<path fill="#002f9f" d="
  M 367.90 160.19
  C 371.71 159.39 376.25 159.13 381.52 159.40
  C 398.25 160.27 413.40 169.34 419.22 185.89
  C 428.28 211.69 414.41 238.92 386.61 243.91
  C 356.73 249.27 328.91 229.68 331.93 197.56
  C 333.75 178.20 349.28 164.08 367.90 160.19
  Z
  M 352.79 201.98
  C 352.72 216.72 361.38 228.75 376.90 228.83
  C 392.43 228.91 401.20 216.96 401.28 202.22
  C 401.35 187.48 392.69 175.45 377.17 175.37
  C 361.64 175.29 352.87 187.24 352.79 201.98
  Z"
/>
<path fill="#002f9f" d="
  M 118.14 209.84
  C 117.89 209.84 117.69 210.04 117.69 210.29
  C 117.64 214.98 117.64 224.96 117.67 240.24
  C 117.67 241.90 116.79 242.71 115.03 242.67
  C 112.46 242.62 107.28 242.59 99.49 242.60
  C 98.52 242.60 97.74 241.82 97.74 240.85
  L 97.74 162.40
  C 97.74 161.63 98.37 161.00 99.14 161.00
  L 148.15 161.00
  C 148.80 161.00 149.32 161.52 149.32 162.17
  L 149.32 176.11
  C 149.32 176.82 148.75 177.39 148.04 177.39
  L 118.36 177.39
  C 117.97 177.39 117.66 177.70 117.66 178.09
  L 117.66 192.77
  C 117.66 193.13 117.95 193.42 118.31 193.42
  L 145.79 193.42
  C 146.60 193.42 147.25 194.07 147.25 194.88
  L 147.25 207.91
  C 147.25 208.98 146.39 209.84 145.32 209.84
  L 118.14 209.84
  Z"
/>
<path fill="#002f9f" d="
  M 196.03 193.33
  L 212.65 161.91
  C 212.94 161.36 213.50 161.02 214.12 161.02
  L 231.76 161.02
  C 232.85 161.02 233.53 162.20 232.98 163.14
  L 205.41 210.90
  C 205.04 211.54 204.85 212.27 204.84 213.00
  C 204.83 213.96 204.82 222.88 204.80 239.76
  C 204.79 241.77 203.89 242.75 202.10 242.68
  C 199.67 242.59 194.60 242.58 186.90 242.65
  C 185.92 242.66 185.24 242.20 184.86 241.27
  C 184.82 241.16 184.80 240.31 184.80 238.72
  C 184.81 235.90 184.82 227.31 184.81 212.95
  C 184.81 212.31 184.65 211.68 184.34 211.12
  L 158.23 163.81
  C 157.53 162.55 158.44 161.00 159.88 161.00
  L 177.58 161.00
  C 178.26 161.00 178.88 161.38 179.19 161.99
  L 194.99 193.32
  C 195.20 193.74 195.81 193.75 196.03 193.33
  Z"
/>
<path fill="#002f9f" d="
  M 323.18 240.91
  C 323.18 241.84 322.42 242.60 321.49 242.60
  L 304.85 242.60
  C 303.92 242.60 303.16 241.84 303.16 240.91
  L 303.16 162.65
  C 303.16 161.72 303.92 160.96 304.85 160.96
  L 321.49 160.96
  C 322.42 160.96 323.18 161.72 323.18 162.65
  L 323.18 240.91
  Z"
/>
<path fill="#002f9f" d="
  M 122.78 358.97
  C 122.86 359.01 122.89 359.11 122.86 359.19
  C 122.83 359.27 122.74 359.32 122.65 359.30
  C 113.00 357.19 103.66 354.13 94.63 350.12
  C 84.60 345.68 65.45 335.97 67.67 321.97
  C 68.95 313.86 75.67 306.27 82.26 300.91
  C 98.58 287.62 117.50 278.75 137.76 271.52
  C 145.77 268.66 153.46 266.30 160.84 264.43
  C 171.06 261.84 181.12 259.68 191.02 257.93
  C 227.89 251.43 264.97 252.45 301.74 255.81
  C 317.07 257.21 329.49 258.12 339.00 258.54
  C 354.55 259.21 369.88 258.56 384.97 256.59
  C 404.63 254.02 424.05 247.50 439.91 235.57
  C 439.97 235.53 440.05 235.53 440.10 235.59
  L 440.11 235.59
  C 440.17 235.66 440.17 235.77 440.10 235.83
  C 433.60 242.54 426.34 247.61 418.32 251.06
  C 404.84 256.85 390.73 260.54 375.98 262.13
  C 358.81 263.99 344.06 264.53 331.75 263.74
  C 316.54 262.76 300.54 262.14 284.18 261.29
  C 250.72 259.54 217.87 263.00 185.64 271.69
  C 164.04 277.51 142.55 285.86 123.92 297.43
  C 110.48 305.77 85.99 326.26 101.44 343.84
  C 107.32 350.55 113.74 353.83 122.78 358.97
  Z"
/>
<path fill="#3e7d01" d="
  M 443.09 247.70
  C 443.19 247.63 443.32 247.64 443.39 247.73
  L 443.39 247.74
  C 443.43 247.78 443.43 247.86 443.39 247.90
  C 431.72 259.43 416.94 266.47 401.45 270.70
  C 391.26 273.49 382.21 275.36 374.32 276.32
  C 358.28 278.26 343.57 278.50 324.55 277.51
  C 304.57 276.47 286.92 275.97 267.15 276.58
  C 259.00 276.83 250.92 277.51 242.91 278.61
  C 230.44 280.33 219.88 282.21 211.25 284.26
  C 192.15 288.79 173.17 295.39 154.68 304.69
  C 142.37 310.89 108.96 330.56 116.83 348.55
  C 116.97 348.87 116.57 349.15 116.32 348.91
  C 105.14 337.98 114.22 323.39 123.27 315.23
  C 134.53 305.11 148.11 297.47 162.05 291.57
  C 176.52 285.45 190.72 280.83 204.66 277.71
  C 222.51 273.72 239.63 271.25 256.02 270.30
  C 273.19 269.30 290.45 269.77 310.98 270.99
  C 335.77 272.45 355.46 273.36 378.49 270.91
  C 392.11 269.46 405.69 266.14 419.23 260.95
  C 427.81 257.66 435.76 253.25 443.09 247.70
  Z"
/>
<path fill="#002f9f" d="
  M 190.11 350.61
  C 190.01 350.99 190.38 351.33 190.75 351.19
  C 200.47 347.57 210.54 345.26 220.83 345.97
  C 222.85 346.03 224.50 347.60 224.67 349.62
  L 224.69 349.87
  C 224.84 351.60 223.41 353.06 221.68 352.95
  C 211.38 352.35 199.82 355.44 189.45 359.17
  C 187.45 359.89 186.01 360.16 185.12 359.99
  C 181.88 359.36 180.65 357.47 181.47 354.23
  C 186.30 335.24 190.93 317.38 195.34 300.67
  C 195.85 298.70 197.79 297.46 199.79 297.82
  L 200.15 297.86
  C 201.90 298.07 203.06 299.76 202.63 301.47
  L 190.11 350.61
  Z"
/>
<path fill="#002f9f" d="
  M 328.47 348.04
  C 328.53 347.79 328.21 347.63 328.04 347.82
  C 322.52 354.01 314.15 359.57 305.24 358.37
  C 293.81 356.83 290.86 346.43 294.72 336.86
  C 296.37 332.76 298.96 329.10 302.47 325.87
  C 307.06 321.66 315.65 317.88 321.74 321.37
  C 322.03 321.54 322.29 321.75 322.52 322.00
  C 326.33 326.32 323.81 331.54 319.93 334.74
  C 314.80 338.96 308.73 341.65 301.71 342.81
  C 301.29 342.88 300.98 343.24 300.97 343.66
  C 300.86 348.03 302.84 350.43 306.93 350.85
  C 312.92 351.45 319.38 346.99 323.29 342.90
  C 325.35 340.75 327.55 339.52 329.12 342.69
  C 329.33 343.11 329.95 343.04 330.06 342.58
  L 334.41 324.02
  C 334.86 322.08 336.71 320.79 338.69 321.05
  L 339.02 321.09
  C 340.98 321.30 342.29 323.19 341.80 325.10
  C 340.83 328.86 340.35 330.77 340.36 330.82
  C 340.41 331.06 340.71 331.13 340.86 330.95
  C 344.78 326.33 352.54 316.84 359.23 322.41
  C 359.51 322.65 359.71 322.95 359.83 323.29
  C 361.31 327.65 359.70 333.48 358.72 337.64
  C 357.61 342.31 357.30 346.51 357.77 350.24
  C 357.88 351.13 358.88 351.61 359.65 351.14
  C 360.33 350.73 361.13 350.43 362.04 350.26
  C 363.35 350.02 364.59 350.70 364.87 351.82
  C 365.59 354.67 361.38 357.50 359.02 358.11
  C 345.86 361.50 350.33 340.26 351.96 334.17
  C 352.39 332.56 352.65 331.16 352.73 329.98
  C 352.76 329.49 352.18 329.20 351.81 329.53
  C 343.33 337.15 339.20 346.24 334.64 356.60
  C 334.21 357.57 333.16 358.02 331.47 357.96
  C 328.82 357.86 327.37 356.61 327.12 354.21
  C 327.11 354.09 327.11 353.97 327.14 353.85
  L 328.47 348.04
  Z
  M 316.9269 326.8122
  C 316.30 325.83 312.83 326.94 309.1770 329.2964
  C 305.53 331.65 303.08 334.35 303.7131 335.3278
  C 304.34 336.31 307.81 335.20 311.4630 332.8436
  C 315.11 330.49 317.56 327.79 316.9269 326.8122
  Z"
/>
<path fill="#002f9f" d="
  M 248.50 347.95
  C 248.51 347.63 248.09 347.50 247.91 347.76
  C 244.66 352.51 237.62 359.74 231.13 356.34
  C 227.11 354.23 226.48 348.94 227.43 344.95
  C 229.62 335.69 236.93 325.31 245.67 321.71
  C 248.73 320.45 253.98 320.59 255.40 324.21
  C 255.55 324.60 255.85 324.93 256.22 325.12
  L 257.87 326.00
  C 258.86 326.52 259.32 327.69 258.95 328.75
  C 256.90 334.60 255.63 340.42 255.14 346.23
  C 255.08 346.94 255.37 348.03 256.00 349.50
  C 256.16 349.88 256.54 350.12 256.95 350.12
  C 260.43 350.10 260.43 346.70 264.19 347.44
  C 264.59 347.51 264.98 347.27 265.08 346.88
  L 270.98 323.73
  C 271.44 321.92 273.21 320.78 275.05 321.11
  L 275.51 321.20
  C 277.34 321.53 278.50 323.34 278.04 325.14
  L 276.35 331.78
  C 276.31 331.94 276.39 332.10 276.54 332.16
  C 276.68 332.23 276.86 332.18 276.94 332.04
  C 279.99 327.10 289.71 316.63 295.88 322.90
  C 297.14 324.18 297.46 326.13 296.85 328.75
  C 296.75 329.17 296.50 329.53 296.14 329.75
  C 294.39 330.84 292.83 330.43 291.46 328.54
  C 291.14 328.10 290.54 327.98 290.08 328.26
  C 281.52 333.40 275.44 345.09 271.19 355.69
  C 269.91 358.89 263.91 357.97 263.81 353.91
  C 263.80 353.52 263.33 353.34 263.06 353.61
  C 256.62 360.06 248.24 358.06 248.50 347.95
  Z
  M 250.68 329.14
  C 250.91 328.41 250.29 327.68 249.53 327.79
  C 242.36 328.78 236.46 339.49 234.46 346.01
  C 234.14 347.04 234.15 348.04 234.50 349.01
  C 234.78 349.79 235.79 350.06 236.59 349.58
  C 243.47 345.44 248.39 336.54 250.68 329.14
  Z"
/>
</svg>
