<?xml version="1.0" encoding="UTF-8" standalone="no"?>
<!DOCTYPE svg PUBLIC "-//W3C//DTD SVG 1.1//EN" "http://www.w3.org/Graphics/SVG/1.1/DTD/svg11.dtd">
<svg xmlns="http://www.w3.org/2000/svg" version="1.1" viewBox="0.00 0.00 500.00 500.00">
<path fill="#ffffff" d="
  M 293.79 164.07
  C 294.17 164.47 294.32 165.05 294.17 165.58
  L 290.61 178.62
  C 290.28 179.79 288.99 180.39 287.89 179.89
  C 279.51 176.06 269.97 172.25 261.18 175.88
  C 257.68 177.32 256.21 179.77 256.76 183.24
  C 257.29 186.56 261.69 188.60 264.20 189.56
  C 276.93 194.42 294.28 198.70 295.70 214.96
  C 296.49 224.05 293.60 231.48 287.04 237.26
  C 273.15 249.50 250.08 246.25 234.43 238.87
  C 233.50 238.44 233.05 237.37 233.38 236.40
  C 234.57 232.91 235.65 229.02 236.64 224.71
  C 237.24 222.07 239.01 221.79 241.30 222.90
  C 249.45 226.83 257.77 229.84 267.02 228.28
  C 270.83 227.63 274.88 223.81 274.48 219.57
  C 274.09 215.43 269.23 212.83 265.67 211.59
  C 264.56 211.20 260.49 209.60 253.46 206.79
  C 244.31 203.13 235.79 196.83 235.40 185.96
  C 234.69 166.53 251.16 157.66 268.51 157.28
  C 274.56 157.15 281.36 158.56 288.91 161.51
  C 290.65 162.18 292.57 162.80 293.79 164.07
  Z"
/>
<path fill="#ffffff" d="
  M 425.49 220.42
  C 419.13 234.52 406.03 243.46 390.76 245.22
  C 379.00 246.57 367.33 245.02 357.09 238.71
  C 335.15 225.17 330.21 194.74 346.53 174.54
  C 358.93 159.19 380.37 153.89 399.27 159.49
  C 412.38 163.37 421.44 171.54 426.43 184.01
  C 430.73 194.75 430.37 209.60 425.49 220.42
  Z
  M 358.46 201.57
  C 358.36 216.53 367.28 229.29 383.24 229.39
  C 399.20 229.50 408.28 216.85 408.37 201.88
  C 408.47 186.92 399.55 174.16 383.59 174.06
  C 367.63 173.95 358.55 186.60 358.46 201.57
  Z"
/>
<path fill="#ffffff" d="
  M 114.73 243.43
  L 97.00 243.43
  C 96.27 243.43 95.67 242.83 95.67 242.10
  L 95.67 160.63
  C 95.67 159.90 96.27 159.30 97.00 159.30
  L 147.65 159.30
  C 148.38 159.30 148.98 159.90 148.98 160.63
  L 148.98 174.91
  C 148.98 175.64 148.38 176.24 147.65 176.24
  L 117.37 176.24
  C 116.64 176.24 116.04 176.84 116.04 177.57
  L 116.04 191.58
  C 116.04 192.31 116.64 192.91 117.37 192.91
  L 145.54 192.91
  C 146.27 192.91 146.87 193.51 146.87 194.24
  L 146.87 208.12
  C 146.87 208.85 146.27 209.45 145.54 209.45
  L 117.39 209.45
  C 116.66 209.45 116.06 210.05 116.06 210.78
  L 116.06 242.10
  C 116.06 242.83 115.46 243.43 114.73 243.43
  Z"
/>
<path fill="#ffffff" d="
  M 196.44 192.74
  C 196.58 192.97 196.92 192.96 197.05 192.72
  L 213.93 160.70
  C 214.41 159.80 215.35 159.23 216.38 159.24
  C 221.85 159.28 227.13 159.29 232.24 159.26
  C 233.15 159.26 233.84 159.44 234.32 159.79
  C 234.98 160.28 235.18 161.19 234.78 161.90
  C 226.87 176.04 217.58 192.31 206.91 210.70
  C 206.23 211.88 205.90 213.83 205.93 216.55
  C 206.02 227.32 206.02 235.86 205.91 242.17
  C 205.90 242.87 205.32 243.44 204.62 243.44
  L 186.97 243.44
  C 186.21 243.44 185.60 242.83 185.61 242.07
  C 185.67 229.07 185.66 219.55 185.58 213.52
  C 185.57 212.39 185.07 210.93 184.08 209.16
  C 173.90 190.82 165.21 175.07 158.01 161.92
  C 157.58 161.15 157.85 160.17 158.62 159.73
  C 159.25 159.36 160.30 159.21 161.75 159.27
  C 162.58 159.30 167.67 159.30 177.01 159.25
  C 178.46 159.24 179.55 159.98 180.30 161.46
  C 184.83 170.43 189.52 179.65 194.37 189.13
  C 194.89 190.15 195.58 191.35 196.44 192.74
  Z"
/>
<path fill="#ffffff" d="
  M 328.18 241.97
  C 328.18 242.78 327.53 243.43 326.72 243.43
  L 309.10 243.43
  C 308.29 243.43 307.64 242.78 307.64 241.97
  L 307.64 160.75
  C 307.64 159.94 308.29 159.29 309.10 159.29
  L 326.72 159.29
  C 327.53 159.29 328.18 159.94 328.18 160.75
  L 328.18 241.97
  Z"
/>
<path fill="#ffffff" d="
  M 448.17 236.27
  C 448.26 236.21 448.37 236.22 448.44 236.29
  L 448.45 236.30
  C 448.53 236.38 448.52 236.52 448.44 236.60
  C 443.73 241.39 439.46 244.92 435.65 247.20
  C 419.03 257.12 400.16 261.91 381.05 264.09
  C 366.07 265.80 351.55 266.29 337.50 265.55
  C 306.05 263.90 289.88 263.06 289.00 263.01
  C 242.95 260.80 198.55 268.17 155.80 285.12
  C 141.46 290.81 127.32 297.96 115.11 307.10
  C 102.07 316.86 85.10 335.78 101.94 351.35
  C 107.41 356.41 113.62 360.62 120.55 363.98
  C 120.90 364.15 121.17 364.37 121.36 364.65
  C 121.46 364.78 121.34 364.97 121.18 364.93
  C 107.30 361.91 94.20 356.90 81.88 349.89
  C 75.25 346.12 69.88 342.16 66.24 335.43
  C 60.92 325.61 70.09 314.03 77.59 307.32
  C 88.41 297.65 100.93 290.29 113.96 284.22
  C 125.01 279.07 135.53 274.93 145.52 271.80
  C 172.26 263.41 198.76 258.13 225.01 255.97
  C 243.99 254.40 263.32 254.26 283.00 255.54
  C 292.77 256.17 303.54 257.05 315.33 258.17
  C 328.93 259.46 339.68 260.19 347.57 260.38
  C 359.30 260.66 370.06 260.40 379.87 259.60
  C 385.46 259.15 392.39 258.15 400.67 256.60
  C 417.69 253.44 434.46 247.03 448.17 236.27
  Z"
/>
<path fill="#478702" d="
  M 452.18 248.22
  C 452.32 248.10 452.54 248.15 452.63 248.31
  L 452.79 248.59
  C 452.81 248.61 452.80 248.64 452.78 248.66
  C 443.10 257.74 432.72 264.32 421.65 268.40
  C 400.72 276.10 379.33 280.10 357.49 280.40
  C 346.10 280.55 330.03 280.14 309.26 279.15
  C 288.58 278.16 269.44 278.59 251.84 280.42
  C 240.01 281.65 226.76 284.05 212.11 287.61
  C 191.90 292.52 172.63 299.58 154.31 308.80
  C 148.44 311.75 142.24 315.47 135.73 319.96
  C 126.81 326.10 115.78 335.60 114.26 346.43
  C 113.86 349.27 114.68 351.50 115.64 354.47
  C 115.72 354.72 115.41 354.92 115.22 354.73
  C 111.06 350.63 109.00 346.34 109.62 340.34
  C 110.95 327.49 124.69 316.24 134.60 309.83
  C 145.76 302.60 157.81 296.50 170.76 291.52
  C 210.63 276.18 254.19 270.21 297.00 272.24
  C 314.31 273.07 327.73 273.83 337.25 274.53
  C 340.22 274.74 347.16 274.84 358.09 274.83
  C 380.32 274.79 402.79 271.57 424.00 263.76
  C 427.21 262.58 430.33 261.29 433.37 259.90
  C 441.03 256.39 446.97 252.35 452.18 248.22
  Z"
/>
<path fill="#ffffff" d="
  M 191.12 356.00
  C 191.05 356.24 191.29 356.46 191.53 356.38
  C 200.44 353.36 210.12 350.89 219.75 350.91
  C 223.37 350.92 228.19 352.16 226.35 356.85
  C 225.97 357.84 224.99 358.46 223.93 358.39
  C 221.11 358.21 219.49 357.95 217.35 358.26
  C 206.74 359.80 196.62 362.68 189.54 365.05
  C 185.79 366.30 180.81 365.08 182.11 359.99
  C 186.77 341.76 192.30 323.00 197.14 304.50
  C 197.70 302.39 199.76 301.05 201.91 301.40
  L 202.15 301.44
  C 204.14 301.75 205.41 303.73 204.88 305.67
  L 191.12 356.00
  Z"
/>
<path fill="#ffffff" d="
  M 346.07 335.53
  C 346.27 335.30 347.40 333.97 349.47 331.52
  C 352.21 328.28 358.50 323.59 363.09 325.36
  C 367.19 326.94 366.93 331.39 366.08 335.29
  C 365.53 337.80 365.09 341.09 364.28 343.96
  C 363.15 347.99 362.85 351.85 363.39 355.54
  C 363.54 356.53 364.64 357.06 365.50 356.56
  L 367.58 355.36
  C 367.80 355.23 368.06 355.16 368.32 355.15
  C 370.01 355.07 370.94 356.02 371.11 357.99
  C 371.32 360.49 368.05 362.56 366.00 363.42
  C 362.26 364.99 359.28 364.33 357.07 361.44
  C 354.51 358.12 354.73 352.00 355.61 348.05
  C 356.56 343.77 357.52 339.29 358.47 334.60
  C 358.56 334.18 358.11 333.85 357.73 334.05
  C 356.72 334.59 355.91 335.17 355.30 335.79
  C 349.07 342.06 343.99 350.50 340.08 361.09
  C 339.41 362.90 337.47 363.89 335.61 363.38
  L 334.33 363.03
  C 332.49 362.53 331.41 360.63 331.91 358.79
  L 333.37 353.47
  C 333.47 353.11 333.02 352.87 332.77 353.14
  C 326.14 360.43 317.43 365.83 307.23 363.57
  C 299.56 361.87 295.81 354.35 297.17 346.98
  C 299.33 335.33 308.73 325.21 320.58 323.97
  C 324.22 323.59 326.84 324.81 328.44 327.62
  C 330.68 331.55 328.13 336.62 324.83 339.34
  C 319.18 344.00 312.66 346.84 305.27 347.86
  C 304.93 347.91 304.68 348.20 304.69 348.55
  C 304.78 351.83 306.07 354.08 308.55 355.30
  C 313.67 357.83 321.80 353.66 325.82 350.02
  C 328.18 347.88 331.14 342.88 334.51 347.73
  C 334.68 347.98 335.07 347.89 335.11 347.59
  C 335.54 344.65 336.46 340.89 337.87 336.32
  C 338.07 335.67 338.22 335.00 338.33 334.33
  C 338.74 331.65 339.23 329.46 339.80 327.76
  C 340.46 325.79 342.53 324.68 344.53 325.23
  L 345.09 325.38
  C 346.70 325.82 347.65 327.48 347.21 329.09
  L 345.53 335.23
  C 345.44 335.55 345.85 335.78 346.07 335.53
  Z
  M 307.62 341.04
  C 311.65 340.05 320.45 336.12 321.82 331.66
  C 321.91 331.36 321.69 331.06 321.38 331.06
  C 314.94 331.06 310.21 335.08 307.27 340.58
  C 307.14 340.82 307.35 341.11 307.62 341.04
  Z"
/>
<path fill="#ffffff" d="
  M 279.64 336.55
  C 279.61 336.67 279.67 336.79 279.78 336.84
  C 279.89 336.89 280.02 336.85 280.09 336.75
  C 283.37 331.68 291.02 323.08 297.94 325.88
  C 300.31 326.84 301.49 328.71 301.46 331.48
  C 301.44 333.77 299.62 335.55 297.36 335.03
  C 297.09 334.97 296.85 334.82 296.67 334.61
  L 295.13 332.77
  C 294.95 332.55 294.65 332.48 294.39 332.59
  C 292.05 333.61 289.99 335.15 288.22 337.22
  C 282.17 344.25 277.63 352.04 274.58 360.61
  C 273.17 364.55 267.00 364.03 266.66 359.31
  C 266.64 359.02 266.29 358.89 266.09 359.10
  C 265.39 359.83 264.48 360.57 263.36 361.32
  C 256.68 365.78 249.87 360.86 250.84 353.24
  C 250.87 352.99 250.55 352.86 250.39 353.06
  C 248.77 355.13 247.76 356.39 247.37 356.85
  C 243.99 360.79 237.93 364.82 232.83 361.86
  C 228.78 359.51 228.31 353.42 229.49 349.25
  C 232.05 340.16 244.10 321.05 256.15 326.07
  C 256.83 326.35 257.58 327.28 258.40 328.86
  C 258.52 329.10 258.72 329.29 258.97 329.40
  L 260.73 330.19
  C 261.81 330.67 262.33 331.91 261.92 333.01
  C 260.25 337.52 258.94 342.17 257.97 346.96
  C 257.50 349.26 256.87 354.15 259.54 355.04
  C 263.02 356.20 263.05 351.51 267.07 352.69
  C 267.45 352.80 267.86 352.58 267.96 352.19
  L 274.29 327.98
  C 274.81 325.97 276.88 324.77 278.88 325.32
  L 279.14 325.39
  C 280.96 325.89 282.04 327.78 281.54 329.60
  L 279.64 336.55
  Z
  M 253.53 332.95
  C 253.68 332.46 253.28 331.98 252.77 332.05
  C 244.51 333.16 237.92 345.39 236.24 352.38
  C 235.97 353.49 236.53 354.61 237.54 354.96
  C 238.07 355.14 238.76 354.93 239.62 354.34
  C 246.66 349.45 250.95 341.36 253.53 332.95
  Z"
/>
</svg>
